HIERARCHY
ROOT Hips
{
	OFFSET 0.00000 0.00000 0.00000
	CHANNELS 6 Xposition Yposition Zposition Yrotation Zrotation Xrotation 
	JOINT Lumbar
	{
		OFFSET 0 0 0
		CHANNELS 3 Zrotation Xrotation Yrotation
		JOINT Neck
		{
			OFFSET 0.00 0.2701 0.00
			CHANNELS 3 Zrotation Xrotation Yrotation
			End Site
			{
				OFFSET 0.00 0.1379 0.00
			}
		}
		JOINT RightShoulder
		{
			OFFSET 0.0119 0.2289 0.1181
			CHANNELS 3 Zrotation Xrotation Yrotation
			JOINT RightElbow
			{
				OFFSET 0.00 -0.1475 0.00
				CHANNELS 2 Zrotation Yrotation
				JOINT RightWrist
				{
					OFFSET 0.00 -0.1605 0.00
					CHANNELS 2 Zrotation Xrotation
					End Site
					{
						OFFSET 0.0040 -0.1068 0.0006
					}
				}
			}
		}
		JOINT LeftShoulder
		{
			OFFSET 0.0119 0.2289 -0.1181
			CHANNELS 3 Zrotation Xrotation Yrotation
			JOINT LeftElbow
			{
				OFFSET 0.00 -0.1475 0.00
				CHANNELS 2 Zrotation Yrotation
				JOINT LeftWrist
				{
					OFFSET 0.00 -0.1605 0.00
					CHANNELS 2 Zrotation Xrotation
					End Site
					{
						OFFSET 0.0040 -0.1068 -0.0006
					}
				}
			}
		}
	}
	JOINT RightHip
	{
		OFFSET 0.0316 -0.0424 0.0458
		CHANNELS 3 Zrotation Xrotation Yrotation
		JOINT RightKnee
		{
			OFFSET 0.00 -0.2438 0.00
			CHANNELS 1 Zrotation
			JOINT RightAnkle
			{
				OFFSET 0.00 -0.2449 0.00
				CHANNELS 3 Zrotation Xrotation Yrotation
				End Site
				{
					OFFSET 0.1237 -0.0542 0.0051
				}
			}
		}
	}
	JOINT LeftHip
	{
		OFFSET 0.0316 -0.0424 -0.0458
		CHANNELS 3 Zrotation Xrotation Yrotation
		JOINT LeftKnee
		{
			OFFSET 0.00 -0.2438 0.00
			CHANNELS 1 Zrotation
			JOINT LeftAnkle
			{
				OFFSET 0.00 -0.2449 0.00
				CHANNELS 3 Zrotation Xrotation Yrotation
				End Site
				{
					OFFSET 0.1237 -0.0542 -0.0051
				}
			}
		}
	}
}
MOTION
Frames: 11
Frame Time: 0.02
0.27194 0.00626 0.02327 178.63089 0 -2.58611 8.6667 3.78843 -5.23733 -41.38637 3.301 6.17558 29.60739 -39.70043 34.71092 45.91676 74.02535 -26.8357 -1.94243 41.18194 28.6112 -22.44585 26.98192 -106.84982 -32.55504 6.36077 123.4023 3.17274 -8.03342 -70.78607 -10.40294 -1.33618 0.57485 126.68097 -13.69369 -14.38031 -119.67741 22.28806 -33.11693 -3.40288
0.27171 0.00634 0.02312 178.54027 0 -2.44483 8.34748 3.76115 -5.10831 -41.42316 3.0451 5.99555 29.88769 -39.15047 35.29448 45.80827 74.60322 -26.98201 -2.02681 41.18706 28.82646 -24.04313 27.66973 -106.70966 -33.42316 6.26539 123.98597 1.69616 -10.1811 -72.85148 -10.77335 -1.26276 2.05996 126.68097 -13.69369 -14.46103 -119.7957 22.28804 -33.11673 -3.34226
0.27148 0.00642 0.02302 178.44005 0 -2.30408 8.02792 3.75006 -5.00736 -41.44005 2.78872 5.81105 30.25715 -38.58669 35.84099 45.47262 75.17345 -27.1631 -2.10592 41.19743 29.07683 -25.61928 28.30916 -106.44064 -34.08672 6.18112 124.57172 -0.22434 -12.83644 -75.18681 -11.25342 -1.17786 3.9083 126.68097 -13.69368 -14.55011 -119.92271 22.28803 -33.11649 -3.30619
0.27126 0.00649 0.02292 178.35654 0 -2.16093 7.70881 3.72852 -4.90222 -41.46445 2.54005 5.62511 30.57605 -38.04643 36.40003 45.25905 75.72576 -27.33179 -2.18465 41.2011 29.31024 -27.19261 28.97001 -106.21349 -34.80575 6.09499 125.13927 -1.97903 -15.26072 -77.41241 -11.69759 -1.10225 5.54536 126.68097 -13.69368 -14.61608 -120.03814 22.28801 -33.11628 -3.26111
0.27102 0.00659 0.02276 178.22142 0 -2.02558 7.38895 3.71949 -4.76165 -41.49772 2.25848 5.45047 30.94295 -37.42909 36.97768 44.96237 76.36982 -27.48271 -2.2751 41.22543 29.55239 -28.82823 29.63627 -106.03906 -35.6795 5.9951 125.78091 -3.59058 -17.6961 -79.59034 -12.08723 -1.00969 7.37871 126.68097 -13.69368 -14.76222 -120.186 22.28799 -33.11601 -3.20681
0.27081 0.00663 0.02272 178.18944 0 -1.87527 7.07018 3.68893 -4.70017 -41.50708 2.04539 5.25342 31.23075 -36.971 37.50807 44.78686 76.82346 -27.67902 -2.34023 41.20908 29.78369 -30.32404 30.27952 -105.73438 -36.1858 5.926 126.26871 -5.59455 -20.21831 -81.92646 -12.61248 -0.94943 8.88915 126.68097 -13.69368 -14.74685 -120.26899 22.28798 -33.11584 -3.17719
0.27061 0.00647 0.02297 178.46834 0 -1.67567 6.75711 3.58913 -4.86402 -41.45278 2.02677 4.98436 31.2573 -36.95167 37.9107 44.99418 76.71514 -28.00609 -2.33247 41.05516 29.96679 -31.45348 30.86001 -105.06073 -35.70128 5.94773 126.32558 -8.67133 -22.94152 -84.66534 -13.51398 -0.98311 9.41773 126.68097 -13.69368 -14.24578 -120.16174 22.288 -33.116 -3.2152
0.27043 0.00625 0.02333 178.84755 0 -1.4626 6.44481 3.46826 -5.1042 -41.37526 2.07639 4.69519 31.20537 -37.0942 38.26782 45.33343 76.42178 -28.37511 -2.30016 40.86475 30.13847 -32.4383 31.42069 -104.27042 -34.85856 5.99907 126.22844 -12.10977 -25.71843 -87.5478 -14.54209 -1.04907 9.60923 126.68097 -13.69367 -13.58788 -119.99034 22.28801 -33.11626 -3.27654
0.27026 0.00606 0.02362 179.16501 0 -1.26088 6.13015 3.36074 -5.30021 -41.30955 2.09151 4.42306 31.20025 -37.16637 38.65011 45.617 76.23745 -28.71725 -2.28183 40.70497 30.32135 -33.47953 31.99686 -103.56178 -34.19786 6.03087 126.20519 -15.31821 -28.41444 -90.34269 -15.49385 -1.09935 9.95524 126.68097 -13.6937 -13.02711 -119.85421 22.28803 -33.11647 -3.32336
0.27004 0.00587 0.02397 179.54877 0 -1.03694 5.82318 3.2375 -5.53641 -41.23759 2.12114 4.11789 31.14563 -37.22553 39.01325 45.87298 75.94791 -29.09603 -2.25136 40.48264 30.48152 -34.56254 32.54324 -102.72587 -33.45094 6.08689 126.16532 -18.8182 -31.36656 -93.24033 -16.53091 -1.15462 10.30685 126.68097 -13.69367 -12.36052 -119.69302 22.28803 -33.11671 -3.38645
0.26992 0.00567 0.02423 179.82037 0 -0.85629 5.50137 3.14222 -5.70766 -41.17373 2.13698 3.87617 31.18145 -37.34911 39.40458 46.2227 75.83334 -29.40487 -2.24049 40.38627 30.68413 -35.52062 33.14856 -102.13101 -32.79852 6.10165 126.12377 -21.79237 -33.79158 -95.95575 -17.41642 -1.20586 10.56393 126.68097 -13.69367 -11.8732 -119.56812 22.28805 -33.11687 -3.42225
